<svg width="35" height="35" viewBox="0 0 35 35" fill="none" xmlns="http://www.w3.org/2000/svg">
<path d="M24.4271 5.19165V2.91666C24.4271 2.31874 23.9313 1.82291 23.3333 1.82291C22.7354 1.82291 22.2396 2.31874 22.2396 2.91666V5.10416H12.7604V2.91666C12.7604 2.31874 12.2646 1.82291 11.6667 1.82291C11.0688 1.82291 10.5729 2.31874 10.5729 2.91666V5.19165C6.63542 5.55624 4.72501 7.90415 4.43334 11.3896C4.40418 11.8125 4.75418 12.1625 5.16251 12.1625H29.8375C30.2604 12.1625 30.6104 11.7979 30.5667 11.3896C30.275 7.90415 28.3646 5.55624 24.4271 5.19165Z" fill="#002133"/>
<path opacity="0.4" d="M29.1667 14.35C29.9688 14.35 30.625 15.0063 30.625 15.8083V24.7917C30.625 29.1667 28.4375 32.0833 23.3333 32.0833H11.6667C6.5625 32.0833 4.375 29.1667 4.375 24.7917V15.8083C4.375 15.0063 5.03125 14.35 5.83333 14.35H29.1667Z" fill="#002133"/>
<path d="M12.3958 21.875C12.0167 21.875 11.6375 21.7146 11.3604 21.4521C11.0979 21.175 10.9375 20.7958 10.9375 20.4167C10.9375 20.0375 11.0979 19.6583 11.3604 19.3813C11.7688 18.9729 12.4104 18.8416 12.95 19.075C13.1396 19.1479 13.3 19.25 13.4312 19.3813C13.6937 19.6583 13.8542 20.0375 13.8542 20.4167C13.8542 20.7958 13.6937 21.175 13.4312 21.4521C13.1542 21.7146 12.775 21.875 12.3958 21.875Z" fill="#002133"/>
<path d="M17.5 21.875C17.1208 21.875 16.7417 21.7146 16.4646 21.4521C16.2021 21.175 16.0417 20.7958 16.0417 20.4167C16.0417 20.0375 16.2021 19.6583 16.4646 19.3813C16.5958 19.25 16.7562 19.1479 16.9458 19.075C17.4854 18.8416 18.1271 18.9729 18.5354 19.3813C18.7979 19.6583 18.9583 20.0375 18.9583 20.4167C18.9583 20.7958 18.7979 21.175 18.5354 21.4521C18.4625 21.5104 18.3896 21.5687 18.3167 21.6271C18.2292 21.6854 18.1417 21.7292 18.0542 21.7583C17.9667 21.8021 17.8792 21.8313 17.7917 21.8458C17.6896 21.8604 17.6021 21.875 17.5 21.875Z" fill="#002133"/>
<path d="M22.6042 21.875C22.225 21.875 21.8458 21.7146 21.5688 21.4521C21.3063 21.175 21.1458 20.7959 21.1458 20.4167C21.1458 20.0375 21.3063 19.6584 21.5688 19.3813C21.7146 19.25 21.8604 19.1479 22.05 19.075C22.3125 18.9583 22.6042 18.9292 22.8958 18.9875C22.9833 19.0021 23.0708 19.0313 23.1583 19.075C23.2458 19.1042 23.3333 19.148 23.4208 19.2063C23.4938 19.2646 23.5667 19.323 23.6396 19.3813C23.9021 19.6584 24.0625 20.0375 24.0625 20.4167C24.0625 20.7959 23.9021 21.175 23.6396 21.4521C23.5667 21.5104 23.4938 21.5688 23.4208 21.6271C23.3333 21.6854 23.2458 21.7292 23.1583 21.7584C23.0708 21.8021 22.9833 21.8313 22.8958 21.8459C22.7938 21.8605 22.6917 21.875 22.6042 21.875Z" fill="#002133"/>
<path d="M12.3958 26.9792C12.2063 26.9792 12.0167 26.9355 11.8417 26.8625C11.6521 26.7896 11.5063 26.6875 11.3604 26.5563C11.0979 26.2792 10.9375 25.9 10.9375 25.5208C10.9375 25.1417 11.0979 24.7625 11.3604 24.4854C11.5063 24.3542 11.6521 24.2521 11.8417 24.1792C12.1042 24.0625 12.3958 24.0333 12.6875 24.0917C12.775 24.1063 12.8625 24.1354 12.95 24.1792C13.0375 24.2083 13.125 24.2521 13.2125 24.3105C13.2854 24.3688 13.3583 24.4271 13.4312 24.4854C13.6937 24.7625 13.8542 25.1417 13.8542 25.5208C13.8542 25.9 13.6937 26.2792 13.4312 26.5563C13.3583 26.6146 13.2854 26.6875 13.2125 26.7312C13.125 26.7896 13.0375 26.8334 12.95 26.8625C12.8625 26.9063 12.775 26.9354 12.6875 26.95C12.5854 26.9646 12.4979 26.9792 12.3958 26.9792Z" fill="#002133"/>
<path d="M17.5 26.9792C17.1208 26.9792 16.7417 26.8187 16.4646 26.5562C16.2021 26.2792 16.0417 25.9 16.0417 25.5208C16.0417 25.1417 16.2021 24.7625 16.4646 24.4854C17.0042 23.9459 17.9958 23.9459 18.5354 24.4854C18.7979 24.7625 18.9583 25.1417 18.9583 25.5208C18.9583 25.9 18.7979 26.2792 18.5354 26.5562C18.2583 26.8187 17.8792 26.9792 17.5 26.9792Z" fill="#002133"/>
<path d="M22.6042 26.9792C22.225 26.9792 21.8458 26.8187 21.5688 26.5562C21.3063 26.2792 21.1458 25.9 21.1458 25.5208C21.1458 25.1417 21.3063 24.7625 21.5688 24.4854C22.1083 23.9459 23.1 23.9459 23.6396 24.4854C23.9021 24.7625 24.0625 25.1417 24.0625 25.5208C24.0625 25.9 23.9021 26.2792 23.6396 26.5562C23.3625 26.8187 22.9833 26.9792 22.6042 26.9792Z" fill="#002133"/>
</svg>
