<svg width="35" height="35" viewBox="0 0 35 35" fill="none" xmlns="http://www.w3.org/2000/svg">
<path d="M30.7271 7.62707C28.3792 7.39374 26.0312 7.21874 23.6687 7.08749V7.07291L23.3479 5.17707C23.1292 3.83541 22.8083 1.82291 19.3958 1.82291H15.575C12.1771 1.82291 11.8562 3.74791 11.6229 5.16249L11.3167 7.02916C9.96041 7.11666 8.60416 7.20416 7.24791 7.33541L4.27291 7.62707C3.66041 7.68541 3.22291 8.22499 3.28125 8.82291C3.33958 9.42082 3.86458 9.85832 4.47708 9.79999L7.45208 9.50832C15.0937 8.74999 22.7937 9.04166 30.5229 9.81457C30.5667 9.81457 30.5958 9.81457 30.6396 9.81457C31.1937 9.81457 31.675 9.39166 31.7333 8.82291C31.7771 8.22499 31.3396 7.68541 30.7271 7.62707Z" fill="#002133"/>
<path opacity="0.7" d="M28.0438 11.8708C27.6938 11.5063 27.2125 11.3021 26.7167 11.3021H8.28334C7.78751 11.3021 7.29168 11.5063 6.95626 11.8708C6.62084 12.2354 6.43126 12.7313 6.46043 13.2417L7.36459 28.2042C7.52501 30.4208 7.72918 33.1917 12.8188 33.1917H22.1813C27.2708 33.1917 27.475 30.4354 27.6354 28.2042L28.5396 13.2563C28.5688 12.7313 28.3792 12.2354 28.0438 11.8708Z" fill="#F7614D"/>
<path fill-rule="evenodd" clip-rule="evenodd" d="M13.9708 24.7917C13.9708 24.1876 14.4605 23.6979 15.0646 23.6979H19.9208C20.5249 23.6979 21.0146 24.1876 21.0146 24.7917C21.0146 25.3957 20.5249 25.8854 19.9208 25.8854H15.0646C14.4605 25.8854 13.9708 25.3957 13.9708 24.7917Z" fill="#002133"/>
<path fill-rule="evenodd" clip-rule="evenodd" d="M12.7604 18.9583C12.7604 18.3543 13.2501 17.8646 13.8542 17.8646H21.1458C21.7499 17.8646 22.2396 18.3543 22.2396 18.9583C22.2396 19.5624 21.7499 20.0521 21.1458 20.0521H13.8542C13.2501 20.0521 12.7604 19.5624 12.7604 18.9583Z" fill="#002133"/>
<rect x="4" y="7.75" width="27" height="2" rx="1" fill="#002133"/>
</svg>
