<svg width="35" height="26" viewBox="0 0 35 26" fill="none" xmlns="http://www.w3.org/2000/svg">
<path opacity="0.4" d="M33.6875 9.01401C29.645 3.92819 23.73 1 17.5 1C14.385 1 11.3575 1.72855 8.5925 3.08757C5.8275 4.4606 3.3425 6.4641 1.3125 9.01401C-0.4375 11.2137 -0.4375 14.7863 1.3125 16.986C5.355 22.0858 11.27 25 17.5 25C20.615 25 23.6425 24.2715 26.4075 22.9124C29.1725 21.5394 31.6575 19.5359 33.6875 16.986C35.4375 14.8003 35.4375 11.2137 33.6875 9.01401ZM17.5 18.6673C13.58 18.6673 10.43 16.1313 10.43 13.007C10.43 9.88266 13.58 7.34676 17.5 7.34676C21.42 7.34676 24.57 9.88266 24.57 13.007C24.57 16.1313 21.42 18.6673 17.5 18.6673Z" fill="#005AE9" fill-opacity="0.8"/>
<path d="M17.4997 7.99243C14.7522 7.99243 12.5122 10.2324 12.5122 12.9974C12.5122 15.7449 14.7522 17.9849 17.4997 17.9849C20.2472 17.9849 22.5047 15.7449 22.5047 12.9974C22.5047 10.2499 20.2472 7.99243 17.4997 7.99243Z" fill="#002133" fill-opacity="0.8"/>
<path d="M29.5 2L6 24.5" stroke="#002133" stroke-width="3" stroke-linecap="round"/>
</svg>
