<svg width="35" height="35" viewBox="0 0 35 35" fill="none" xmlns="http://www.w3.org/2000/svg">
<path opacity="0.4" d="M13.125 10.5V24.4854C13.125 29.1667 16.0417 32.0833 20.7083 32.0833H24.4854C29.1521 32.0833 32.0688 29.1667 32.0688 24.5V10.5C32.0833 5.83332 29.1667 2.91666 24.5 2.91666H20.7083C16.0417 2.91666 13.125 5.83332 13.125 10.5Z" fill="#002133"/>
<path d="M18.1271 11.8417L23.0125 16.7271C23.4354 17.15 23.4354 17.85 23.0125 18.2729L18.1271 23.1583C17.7042 23.5813 17.0042 23.5813 16.5812 23.1583C16.1583 22.7354 16.1583 22.0354 16.5812 21.6125L19.6 18.5938H4.01041C3.41249 18.5938 2.91666 18.0979 2.91666 17.5C2.91666 16.9021 3.41249 16.4063 4.01041 16.4063H19.6L16.5812 13.3875C16.3625 13.1688 16.2604 12.8917 16.2604 12.6146C16.2604 12.3375 16.3625 12.0604 16.5812 11.8417C17.0042 11.4042 17.6896 11.4042 18.1271 11.8417Z" fill="#002133"/>
</svg>
