<svg width="35" height="35" viewBox="0 0 35 35" fill="none" xmlns="http://www.w3.org/2000/svg">
<path opacity="0.4" d="M13.125 10.5V24.4854C13.125 29.1667 16.0417 32.0833 20.7083 32.0833H24.4854C29.1521 32.0833 32.0688 29.1667 32.0688 24.5V10.5C32.0833 5.83333 29.1667 2.91667 24.5 2.91667H20.7083C16.0417 2.91667 13.125 5.83333 13.125 10.5Z" fill="white"/>
<path d="M8.12289 11.8417L3.23748 16.7271C2.81456 17.15 2.81456 17.85 3.23748 18.2729L8.12289 23.1583C8.54581 23.5813 9.24581 23.5813 9.66873 23.1583C10.0916 22.7354 10.0916 22.0354 9.66873 21.6125L6.64998 18.5937H22.2396C22.8375 18.5937 23.3333 18.0979 23.3333 17.5C23.3333 16.9021 22.8375 16.4062 22.2396 16.4062H6.64998L9.66873 13.3875C9.88748 13.1688 9.98956 12.8917 9.98956 12.6146C9.98956 12.3375 9.88748 12.0458 9.66873 11.8417C9.24581 11.4042 8.56039 11.4042 8.12289 11.8417Z" fill="white"/>
</svg>
