<svg width="40" height="40" viewBox="0 0 40 40" fill="none" xmlns="http://www.w3.org/2000/svg">
<path opacity="0.4" d="M20 3.33332C10.7953 3.33332 3.33333 10.7952 3.33333 20C3.33334 29.2047 10.7953 36.6667 20 36.6667C29.2048 36.6667 36.6667 29.2047 36.6667 20C36.6667 10.7952 29.2047 3.33332 20 3.33332Z" fill="#002133"/>
<path d="M14.1667 21.25L22.8167 21.25L19.95 24.1167C19.4667 24.6 19.4667 25.4 19.95 25.8833C20.4333 26.3667 21.2333 26.3667 21.7167 25.8833L26.7167 20.8833C27.2 20.4 27.2 19.6 26.7167 19.1167L21.7167 14.1167C21.4667 13.8667 21.15 13.75 20.8333 13.75C20.5167 13.75 20.2 13.8667 19.95 14.1167C19.4667 14.6 19.4667 15.4 19.95 15.8833L22.8167 18.75L14.1667 18.75C13.4833 18.75 12.9167 19.3167 12.9167 20C12.9167 20.6833 13.4833 21.25 14.1667 21.25Z" fill="#002133"/>
</svg>
