<svg width="40" height="40" viewBox="0 0 40 40" fill="none" xmlns="http://www.w3.org/2000/svg">
<path opacity="0.4" d="M20 3.33341C10.7952 3.33341 3.33329 10.7953 3.33329 20.0001C3.33329 29.2048 10.7952 36.6668 20 36.6667C29.2047 36.6667 36.6666 29.2048 36.6666 20.0001C36.6666 10.7953 29.2047 3.33341 20 3.33341Z" fill="#EBF8FF"/>
<path d="M14.1667 21.25L22.8167 21.25L19.9501 24.1167C19.4667 24.6 19.4667 25.4 19.9501 25.8834C20.4334 26.3667 21.2334 26.3667 21.7167 25.8834L26.7167 20.8834C27.2001 20.4 27.2001 19.6 26.7167 19.1167L21.7167 14.1167C21.4667 13.8667 21.1501 13.75 20.8334 13.75C20.5167 13.75 20.2001 13.8667 19.9501 14.1167C19.4667 14.6 19.4667 15.4 19.9501 15.8834L22.8167 18.75L14.1667 18.75C13.4834 18.75 12.9167 19.3167 12.9167 20C12.9167 20.6834 13.4834 21.25 14.1667 21.25Z" fill="#EBF8FF"/>
</svg>
