<svg width="184" height="131" viewBox="0 0 184 131" fill="none" xmlns="http://www.w3.org/2000/svg">
<circle cx="92" cy="48" r="46" stroke="black" stroke-width="4"/>
<path opacity="0.4" d="M92.0001 16.6667C83.2667 16.6667 76.1667 23.7667 76.1667 32.5C76.1667 41.0667 82.8667 48 91.6001 48.3C91.8667 48.2667 92.1334 48.2667 92.3334 48.3C92.4001 48.3 92.4334 48.3 92.5001 48.3C92.5334 48.3 92.5334 48.3 92.5667 48.3C101.1 48 107.8 41.0667 107.833 32.5C107.833 23.7667 100.733 16.6667 92.0001 16.6667Z" fill="#002133"/>
<path d="M108.933 57.1667C99.6334 50.9667 84.4668 50.9667 75.1001 57.1667C70.8668 60 68.5334 63.8333 68.5334 67.9333C68.5334 72.0333 70.8668 75.8333 75.0668 78.6333C79.7334 81.7667 85.8668 83.3333 92.0001 83.3333C98.1334 83.3333 104.267 81.7667 108.933 78.6333C113.133 75.8 115.467 72 115.467 67.8667C115.433 63.7667 113.133 59.9667 108.933 57.1667Z" fill="#002133"/>
<path d="M4.3 117.475V114.7H8.375C8.90833 114.7 9.39167 114.592 9.825 114.375C10.2583 114.158 10.6 113.85 10.85 113.45C11.1 113.033 11.225 112.533 11.225 111.95C11.225 111.383 11.1 110.892 10.85 110.475C10.6 110.058 10.2583 109.742 9.825 109.525C9.39167 109.308 8.90833 109.2 8.375 109.2H4.3V106.425H8.725C9.84167 106.425 10.8417 106.65 11.725 107.1C12.625 107.55 13.3333 108.192 13.85 109.025C14.3667 109.842 14.625 110.817 14.625 111.95C14.625 113.083 14.3667 114.067 13.85 114.9C13.3333 115.717 12.625 116.35 11.725 116.8C10.8417 117.25 9.84167 117.475 8.725 117.475H4.3ZM1.8 124V106.425H5.2V124H1.8ZM22.0688 124.25C20.8021 124.25 19.6771 123.983 18.6938 123.45C17.7104 122.9 16.9271 122.15 16.3438 121.2C15.7771 120.25 15.4938 119.167 15.4938 117.95C15.4938 116.75 15.7688 115.683 16.3188 114.75C16.8854 113.8 17.6521 113.05 18.6188 112.5C19.5854 111.933 20.6604 111.65 21.8438 111.65C23.0104 111.65 24.0354 111.917 24.9188 112.45C25.8188 112.967 26.5188 113.683 27.0188 114.6C27.5354 115.5 27.7938 116.525 27.7938 117.675C27.7938 117.892 27.7771 118.117 27.7438 118.35C27.7271 118.567 27.6854 118.817 27.6188 119.1L17.4688 119.125V116.675L26.0938 116.65L24.7688 117.675C24.7354 116.958 24.6021 116.358 24.3688 115.875C24.1521 115.392 23.8271 115.025 23.3938 114.775C22.9771 114.508 22.4604 114.375 21.8438 114.375C21.1938 114.375 20.6271 114.525 20.1438 114.825C19.6604 115.108 19.2854 115.517 19.0188 116.05C18.7688 116.567 18.6438 117.183 18.6438 117.9C18.6438 118.633 18.7771 119.275 19.0438 119.825C19.3271 120.358 19.7271 120.775 20.2438 121.075C20.7604 121.358 21.3604 121.5 22.0438 121.5C22.6604 121.5 23.2188 121.4 23.7188 121.2C24.2188 120.983 24.6521 120.667 25.0188 120.25L26.9438 122.175C26.3604 122.858 25.6438 123.375 24.7938 123.725C23.9604 124.075 23.0521 124.25 22.0688 124.25ZM29.8191 124V111.925H33.0941V124H29.8191ZM33.0941 117.325L31.8191 116.475C31.9691 114.992 32.4025 113.825 33.1191 112.975C33.8358 112.108 34.8691 111.675 36.2191 111.675C36.8025 111.675 37.3275 111.775 37.7941 111.975C38.2608 112.158 38.6858 112.467 39.0691 112.9L37.0191 115.25C36.8358 115.05 36.6108 114.9 36.3441 114.8C36.0941 114.7 35.8025 114.65 35.4691 114.65C34.7691 114.65 34.1941 114.875 33.7441 115.325C33.3108 115.758 33.0941 116.425 33.0941 117.325ZM44.101 124.275C43.4176 124.275 42.7426 124.183 42.076 124C41.426 123.817 40.826 123.567 40.276 123.25C39.726 122.917 39.251 122.517 38.851 122.05L40.801 120.075C41.2176 120.542 41.701 120.892 42.251 121.125C42.801 121.358 43.4093 121.475 44.076 121.475C44.6093 121.475 45.0093 121.4 45.276 121.25C45.5593 121.1 45.701 120.875 45.701 120.575C45.701 120.242 45.551 119.983 45.251 119.8C44.9676 119.617 44.5926 119.467 44.126 119.35C43.6593 119.217 43.1676 119.075 42.651 118.925C42.151 118.758 41.6676 118.55 41.201 118.3C40.7343 118.033 40.351 117.675 40.051 117.225C39.7676 116.758 39.626 116.158 39.626 115.425C39.626 114.658 39.8093 113.992 40.176 113.425C40.5593 112.858 41.101 112.417 41.801 112.1C42.501 111.783 43.326 111.625 44.276 111.625C45.276 111.625 46.176 111.8 46.976 112.15C47.7926 112.5 48.4676 113.025 49.001 113.725L47.026 115.7C46.6593 115.25 46.2426 114.925 45.776 114.725C45.326 114.525 44.8343 114.425 44.301 114.425C43.8176 114.425 43.4426 114.5 43.176 114.65C42.926 114.8 42.801 115.008 42.801 115.275C42.801 115.575 42.9426 115.808 43.226 115.975C43.526 116.142 43.9093 116.292 44.376 116.425C44.8426 116.542 45.326 116.683 45.826 116.85C46.3426 117 46.826 117.217 47.276 117.5C47.7426 117.783 48.1176 118.158 48.401 118.625C48.701 119.092 48.851 119.692 48.851 120.425C48.851 121.608 48.426 122.55 47.576 123.25C46.726 123.933 45.5676 124.275 44.101 124.275ZM56.7344 124.25C55.5177 124.25 54.4177 123.975 53.4344 123.425C52.4677 122.858 51.6927 122.1 51.1094 121.15C50.5427 120.183 50.2594 119.108 50.2594 117.925C50.2594 116.742 50.5427 115.683 51.1094 114.75C51.676 113.8 52.451 113.05 53.4344 112.5C54.4177 111.933 55.5094 111.65 56.7094 111.65C57.9427 111.65 59.0427 111.933 60.0094 112.5C60.9927 113.05 61.7677 113.8 62.3344 114.75C62.901 115.683 63.1844 116.742 63.1844 117.925C63.1844 119.108 62.901 120.183 62.3344 121.15C61.7677 122.1 60.9927 122.858 60.0094 123.425C59.0427 123.975 57.951 124.25 56.7344 124.25ZM56.7094 121.2C57.326 121.2 57.8677 121.067 58.3344 120.8C58.8177 120.517 59.1844 120.133 59.4344 119.65C59.701 119.15 59.8344 118.583 59.8344 117.95C59.8344 117.317 59.701 116.758 59.4344 116.275C59.1677 115.792 58.801 115.417 58.3344 115.15C57.8677 114.867 57.326 114.725 56.7094 114.725C56.1094 114.725 55.576 114.867 55.1094 115.15C54.6427 115.417 54.276 115.792 54.0094 116.275C53.7427 116.758 53.6094 117.317 53.6094 117.95C53.6094 118.583 53.7427 119.15 54.0094 119.65C54.276 120.133 54.6427 120.517 55.1094 120.8C55.576 121.067 56.1094 121.2 56.7094 121.2ZM73.4178 124V117.075C73.4178 116.358 73.1928 115.775 72.7428 115.325C72.2928 114.875 71.7094 114.65 70.9928 114.65C70.5261 114.65 70.1094 114.75 69.7428 114.95C69.3761 115.15 69.0844 115.433 68.8678 115.8C68.6678 116.167 68.5678 116.592 68.5678 117.075L67.2928 116.425C67.2928 115.475 67.4928 114.65 67.8928 113.95C68.3094 113.233 68.8761 112.675 69.5928 112.275C70.3261 111.875 71.1511 111.675 72.0678 111.675C72.9511 111.675 73.7428 111.9 74.4428 112.35C75.1428 112.783 75.6928 113.358 76.0928 114.075C76.4928 114.775 76.6928 115.533 76.6928 116.35V124H73.4178ZM65.2928 124V111.925H68.5678V124H65.2928ZM84.3809 124.25C83.2809 124.25 82.2892 123.975 81.4059 123.425C80.5225 122.875 79.8309 122.125 79.3309 121.175C78.8309 120.225 78.5809 119.158 78.5809 117.975C78.5809 116.775 78.8309 115.7 79.3309 114.75C79.8309 113.8 80.5225 113.05 81.4059 112.5C82.2892 111.95 83.2809 111.675 84.3809 111.675C85.2475 111.675 86.0225 111.85 86.7059 112.2C87.3892 112.55 87.9309 113.042 88.3309 113.675C88.7475 114.292 88.9725 114.992 89.0059 115.775V120.125C88.9725 120.925 88.7475 121.633 88.3309 122.25C87.9309 122.867 87.3892 123.358 86.7059 123.725C86.0225 124.075 85.2475 124.25 84.3809 124.25ZM84.9809 121.225C85.8975 121.225 86.6392 120.925 87.2059 120.325C87.7725 119.708 88.0559 118.917 88.0559 117.95C88.0559 117.317 87.9225 116.758 87.6559 116.275C87.4059 115.775 87.0475 115.392 86.5809 115.125C86.1309 114.842 85.5975 114.7 84.9809 114.7C84.3809 114.7 83.8475 114.842 83.3809 115.125C82.9309 115.392 82.5725 115.775 82.3059 116.275C82.0559 116.758 81.9309 117.317 81.9309 117.95C81.9309 118.6 82.0559 119.175 82.3059 119.675C82.5725 120.158 82.9309 120.542 83.3809 120.825C83.8475 121.092 84.3809 121.225 84.9809 121.225ZM87.8809 124V120.75L88.4059 117.8L87.8809 114.9V111.925H91.1309V124H87.8809ZM94.0281 124V105.925H97.3031V124H94.0281ZM107.763 124V120.975H112.238C113.371 120.975 114.363 120.742 115.213 120.275C116.063 119.792 116.721 119.117 117.188 118.25C117.671 117.383 117.913 116.358 117.913 115.175C117.913 114.025 117.671 113.025 117.188 112.175C116.704 111.308 116.038 110.642 115.188 110.175C114.338 109.692 113.354 109.45 112.238 109.45H107.688V106.425H112.288C113.588 106.425 114.788 106.642 115.888 107.075C117.004 107.508 117.971 108.125 118.788 108.925C119.621 109.708 120.263 110.633 120.713 111.7C121.179 112.767 121.413 113.933 121.413 115.2C121.413 116.467 121.179 117.642 120.713 118.725C120.263 119.792 119.629 120.725 118.813 121.525C117.996 122.308 117.029 122.917 115.913 123.35C114.813 123.783 113.621 124 112.338 124H107.763ZM105.438 124V106.425H108.838V124H105.438ZM129.539 124.25C128.273 124.25 127.148 123.983 126.164 123.45C125.181 122.9 124.398 122.15 123.814 121.2C123.248 120.25 122.964 119.167 122.964 117.95C122.964 116.75 123.239 115.683 123.789 114.75C124.356 113.8 125.123 113.05 126.089 112.5C127.056 111.933 128.131 111.65 129.314 111.65C130.481 111.65 131.506 111.917 132.389 112.45C133.289 112.967 133.989 113.683 134.489 114.6C135.006 115.5 135.264 116.525 135.264 117.675C135.264 117.892 135.248 118.117 135.214 118.35C135.198 118.567 135.156 118.817 135.089 119.1L124.939 119.125V116.675L133.564 116.65L132.239 117.675C132.206 116.958 132.073 116.358 131.839 115.875C131.623 115.392 131.298 115.025 130.864 114.775C130.448 114.508 129.931 114.375 129.314 114.375C128.664 114.375 128.098 114.525 127.614 114.825C127.131 115.108 126.756 115.517 126.489 116.05C126.239 116.567 126.114 117.183 126.114 117.9C126.114 118.633 126.248 119.275 126.514 119.825C126.798 120.358 127.198 120.775 127.714 121.075C128.231 121.358 128.831 121.5 129.514 121.5C130.131 121.5 130.689 121.4 131.189 121.2C131.689 120.983 132.123 120.667 132.489 120.25L134.414 122.175C133.831 122.858 133.114 123.375 132.264 123.725C131.431 124.075 130.523 124.25 129.539 124.25ZM138.772 124V106.9H142.047V124H138.772ZM135.947 114.8V111.925H144.872V114.8H135.947ZM151.471 124.25C150.371 124.25 149.379 123.975 148.496 123.425C147.612 122.875 146.921 122.125 146.421 121.175C145.921 120.225 145.671 119.158 145.671 117.975C145.671 116.775 145.921 115.7 146.421 114.75C146.921 113.8 147.612 113.05 148.496 112.5C149.379 111.95 150.371 111.675 151.471 111.675C152.337 111.675 153.112 111.85 153.796 112.2C154.479 112.55 155.021 113.042 155.421 113.675C155.837 114.292 156.062 114.992 156.096 115.775V120.125C156.062 120.925 155.837 121.633 155.421 122.25C155.021 122.867 154.479 123.358 153.796 123.725C153.112 124.075 152.337 124.25 151.471 124.25ZM152.071 121.225C152.987 121.225 153.729 120.925 154.296 120.325C154.862 119.708 155.146 118.917 155.146 117.95C155.146 117.317 155.012 116.758 154.746 116.275C154.496 115.775 154.137 115.392 153.671 115.125C153.221 114.842 152.687 114.7 152.071 114.7C151.471 114.7 150.937 114.842 150.471 115.125C150.021 115.392 149.662 115.775 149.396 116.275C149.146 116.758 149.021 117.317 149.021 117.95C149.021 118.6 149.146 119.175 149.396 119.675C149.662 120.158 150.021 120.542 150.471 120.825C150.937 121.092 151.471 121.225 152.071 121.225ZM154.971 124V120.75L155.496 117.8L154.971 114.9V111.925H158.221V124H154.971ZM161.118 124V111.925H164.418V124H161.118ZM162.768 109.975C162.235 109.975 161.793 109.8 161.443 109.45C161.093 109.083 160.918 108.633 160.918 108.1C160.918 107.583 161.093 107.142 161.443 106.775C161.793 106.408 162.235 106.225 162.768 106.225C163.318 106.225 163.76 106.408 164.093 106.775C164.443 107.142 164.618 107.583 164.618 108.1C164.618 108.633 164.443 109.083 164.093 109.45C163.76 109.8 163.318 109.975 162.768 109.975ZM167.319 124V105.925H170.594V124H167.319ZM177.646 124.275C176.963 124.275 176.288 124.183 175.621 124C174.971 123.817 174.371 123.567 173.821 123.25C173.271 122.917 172.796 122.517 172.396 122.05L174.346 120.075C174.763 120.542 175.246 120.892 175.796 121.125C176.346 121.358 176.954 121.475 177.621 121.475C178.154 121.475 178.554 121.4 178.821 121.25C179.104 121.1 179.246 120.875 179.246 120.575C179.246 120.242 179.096 119.983 178.796 119.8C178.513 119.617 178.138 119.467 177.671 119.35C177.204 119.217 176.713 119.075 176.196 118.925C175.696 118.758 175.213 118.55 174.746 118.3C174.279 118.033 173.896 117.675 173.596 117.225C173.313 116.758 173.171 116.158 173.171 115.425C173.171 114.658 173.354 113.992 173.721 113.425C174.104 112.858 174.646 112.417 175.346 112.1C176.046 111.783 176.871 111.625 177.821 111.625C178.821 111.625 179.721 111.8 180.521 112.15C181.338 112.5 182.013 113.025 182.546 113.725L180.571 115.7C180.204 115.25 179.788 114.925 179.321 114.725C178.871 114.525 178.379 114.425 177.846 114.425C177.363 114.425 176.988 114.5 176.721 114.65C176.471 114.8 176.346 115.008 176.346 115.275C176.346 115.575 176.488 115.808 176.771 115.975C177.071 116.142 177.454 116.292 177.921 116.425C178.388 116.542 178.871 116.683 179.371 116.85C179.888 117 180.371 117.217 180.821 117.5C181.288 117.783 181.663 118.158 181.946 118.625C182.246 119.092 182.396 119.692 182.396 120.425C182.396 121.608 181.971 122.55 181.121 123.25C180.271 123.933 179.113 124.275 177.646 124.275Z" fill="black"/>
</svg>
