<svg width="25" height="25" viewBox="0 0 25 25" fill="none" xmlns="http://www.w3.org/2000/svg">
<g clip-path="url(#clip0_183_366)">
<path d="M11.9583 3.125V2.625H11.4583H5.72917C4.01761 2.625 2.625 4.01761 2.625 5.72917V19.2708C2.625 20.9824 4.01761 22.375 5.72917 22.375H8.85417C9.44157 22.375 9.91667 22.8501 9.91667 23.4375C9.91667 24.0249 9.44157 24.5 8.85417 24.5H5.72917C2.84593 24.5 0.5 22.1541 0.5 19.2708V5.72917C0.5 2.84593 2.84593 0.5 5.72917 0.5H12.3365C13.734 0.5 15.0454 1.04315 16.0339 2.03168L18.8017 4.79939C19.7902 5.78795 20.3333 7.09829 20.3333 8.49687V9.89583C20.3333 10.4832 19.8582 10.9583 19.2708 10.9583C18.6834 10.9583 18.2083 10.4832 18.2083 9.89583V9.375V8.875H17.7083H13.5417C12.6668 8.875 11.9583 8.16657 11.9583 7.29167V3.125ZM21.2942 13.5546C22.0797 12.7691 23.3823 12.8176 24.1046 13.7009C24.712 14.4441 24.606 15.5994 23.8756 16.3298L16.8808 23.3246C16.1288 24.0766 15.107 24.5 14.0427 24.5H13.0479C13.0442 24.5 13.0419 24.4993 13.0401 24.4986C13.038 24.4977 13.0355 24.4961 13.0332 24.4938C13.0309 24.4915 13.0294 24.4891 13.0285 24.487C13.0277 24.4852 13.0271 24.4829 13.0271 24.4792V23.4844C13.0271 22.42 13.4495 21.3993 14.2025 20.6463L21.2942 13.5546Z" fill="#F0FAFF" stroke="#F0FAFF"/>
</g>
<defs>
<clipPath id="clip0_183_366">
<rect width="25" height="25" fill="white"/>
</clipPath>
</defs>
</svg>
