<svg width="40" height="35" viewBox="0 0 40 35" fill="none" xmlns="http://www.w3.org/2000/svg">
<path d="M36.6667 16.1437V24.2812C36.6667 28.5833 32.6667 32.0833 27.75 32.0833H12.25C7.33334 32.0833 3.33334 28.5833 3.33334 24.2812V13.7667H36.2333C36.4833 14.4229 36.6167 15.0937 36.65 15.8083C36.6667 15.9104 36.6667 16.0417 36.6667 16.1437Z" fill="#002133"/>
<path opacity="0.4" d="M36.2333 13.7667H3.33334V9.36249C3.33334 5.80416 6.63334 2.91666 10.7 2.91666H14.5833C17.3 2.91666 18.15 3.68957 19.2333 4.95832L21.5667 7.67082C22.0833 8.26874 22.15 8.35624 23.1167 8.35624H27.7667C31.7167 8.34166 35.0833 10.6167 36.2333 13.7667Z" fill="#002133"/>
</svg>
