<svg width="35" height="35" viewBox="0 0 35 35" fill="none" xmlns="http://www.w3.org/2000/svg">
<path opacity="0.4" d="M21.5687 8.75H13.4312C6.98541 8.75 6.98541 12.1771 6.98541 15.1958V17.8063C6.98541 18.1271 7.13125 18.4188 7.37916 18.6083C7.62708 18.7979 7.9625 18.8708 8.26875 18.7833C8.925 18.6083 9.74166 18.5208 10.7187 18.5208C11.6958 18.5208 11.9 18.6375 12.4833 19.075L13.8104 20.475C14.7583 21.4958 16.1146 22.0792 17.5146 22.0792C18.9146 22.0792 20.2562 21.4958 21.2187 20.475L22.5458 19.075C23.1292 18.6375 23.3333 18.5208 24.3104 18.5208C25.2875 18.5208 26.1042 18.6083 26.7604 18.7833C27.0667 18.8708 27.3875 18.7979 27.65 18.6083C27.8979 18.4188 28.0437 18.1125 28.0437 17.8063V15.1958C28.0146 12.1771 28.0146 8.75 21.5687 8.75Z" fill="#002133"/>
<path d="M20.825 7.21874C20.4458 7.59791 19.8187 7.59791 19.4396 7.21874L18.4917 6.27082V13.2271C18.4917 13.7667 18.0542 14.2187 17.5 14.2187C16.9458 14.2187 16.5083 13.7812 16.5083 13.2271V6.27082L15.5604 7.21874C15.1812 7.59791 14.5542 7.59791 14.175 7.21874C13.7958 6.83957 13.7958 6.21249 14.175 5.83332L16.8 3.20832C16.8146 3.19374 16.8146 3.19374 16.8292 3.19374C16.9167 3.12082 17.0042 3.04791 17.1208 3.00416C17.2521 2.94582 17.3687 2.91666 17.5 2.91666C17.6312 2.91666 17.7479 2.94582 17.8792 2.98957C17.9958 3.03332 18.1125 3.10624 18.2 3.20832L20.825 5.83332C21.2042 6.21249 21.2042 6.83957 20.825 7.21874Z" fill="#002133"/>
<path d="M27.2563 16.8146C26.425 16.5958 25.4479 16.4792 24.2813 16.4792C22.6625 16.4792 22.0646 16.8729 21.2333 17.5C21.1896 17.5292 21.1458 17.5729 21.1021 17.6167L19.7167 19.0896C18.55 20.3146 16.45 20.3292 15.2833 19.075L13.8979 17.6167C13.8542 17.5729 13.8104 17.5292 13.7667 17.5C12.9354 16.8729 12.3375 16.4792 10.7188 16.4792C9.55209 16.4792 8.575 16.5958 7.74375 16.8146C4.27292 17.7479 4.27292 20.5042 4.27292 22.925V24.2812C4.27292 27.9417 4.27292 32.0833 12.075 32.0833H22.925C28.1021 32.0833 30.7271 29.4583 30.7271 24.2812V22.925C30.7271 20.5042 30.7271 17.7479 27.2563 16.8146ZM20.8979 26.8333H14.1021C13.5479 26.8333 13.0958 26.3812 13.0958 25.8125C13.0958 25.2437 13.5479 24.7917 14.1021 24.7917H20.8979C21.4521 24.7917 21.9042 25.2437 21.9042 25.8125C21.9042 26.3812 21.4521 26.8333 20.8979 26.8333Z" fill="#002133"/>
<path opacity="0.4" d="M21.9042 25.8125C21.9042 26.3812 21.4521 26.8333 20.8979 26.8333H14.1021C13.5479 26.8333 13.0958 26.3812 13.0958 25.8125C13.0958 25.2437 13.5479 24.7917 14.1021 24.7917H20.8979C21.4521 24.7917 21.9042 25.2437 21.9042 25.8125Z" fill="#002133"/>
</svg>
