<svg width="35" height="30" viewBox="0 0 35 30" fill="none" xmlns="http://www.w3.org/2000/svg">
<path opacity="0.4" d="M33.6875 11.014C29.645 5.92819 23.73 3 17.5 3C14.385 3 11.3575 3.72855 8.5925 5.08757C5.8275 6.4606 3.3425 8.4641 1.3125 11.014C-0.4375 13.2137 -0.4375 16.7863 1.3125 18.986C5.355 24.0858 11.27 27 17.5 27C20.615 27 23.6425 26.2715 26.4075 24.9124C29.1725 23.5394 31.6575 21.5359 33.6875 18.986C35.4375 16.8003 35.4375 13.2137 33.6875 11.014ZM17.5 20.6673C13.58 20.6673 10.43 18.1313 10.43 15.007C10.43 11.8827 13.58 9.34676 17.5 9.34676C21.42 9.34676 24.57 11.8827 24.57 15.007C24.57 18.1313 21.42 20.6673 17.5 20.6673Z" fill="#005AE9"/>
<path d="M17.4997 9.99243C14.7522 9.99243 12.5122 12.2324 12.5122 14.9974C12.5122 17.7449 14.7522 19.9849 17.4997 19.9849C20.2472 19.9849 22.5047 17.7449 22.5047 14.9974C22.5047 12.2499 20.2472 9.99243 17.4997 9.99243Z" fill="#002133"/>
</svg>
